# xmcd
#
# Track frame offsets:
#	150
#	18677
#	31755
#	43415
#	57140
#	79550
#	93580
#	106920
#	119942
#	131535
#	143762
#	157630
#	171185
#	180370
#
# Disc length: 2582 seconds
#
# Revision: 1
# Processed by: cddbd v1.4PL0 Copyright (c) Steve Scherf et al.
# Submitted via: audiograbber 1.81.02
#
DISCID=b20a140e
DTITLE=Joel Paterson - Down at the Depot
DYEAR=1900
DGENRE=
TTITLE0=Down At The Depot
TTITLE1=You Got To Die
TTITLE2=Easy Rider
TTITLE3=Jailhouse Rag
TTITLE4=That's No Way To Get Along
TTITLE5=Guitar Chimes
TTITLE6=Buck Dancer's Choice
TTITLE7=Keep On Tryin'
TTITLE8=Meet Me In The Bottom
TTITLE9=Hard Roll Blues
TTITLE10=Cannonball Rag
TTITLE11=Cincinnati Flow Rag
TTITLE12=Blood Red River Blues
TTITLE13=Keep Your lamp trimmed and burning
EXTD=
EXTT0=
EXTT1=
EXTT2=
EXTT3=
EXTT4=
EXTT5=
EXTT6=
EXTT7=
EXTT8=
EXTT9=
EXTT10=
EXTT11=
EXTT12=
EXTT13=
PLAYORDER=
